<mxfile host="app.diagrams.net" modified="2020-08-23T07:18:13.245Z" agent="5.0 (Windows)" etag="XwjGt459rSWA85RmSOfG" version="13.5.9" type="github">
  <diagram name="Page-1" id="b5b7bab2-c9e2-2cf4-8b2a-24fd1a2a6d21">
    <mxGraphModel dx="1278" dy="547" grid="1" gridSize="10" guides="1" tooltips="1" connect="1" arrows="1" fold="1" page="1" pageScale="1" pageWidth="827" pageHeight="1169" background="#ffffff" math="0" shadow="0">
      <root>
        <mxCell id="0" />
        <mxCell id="1" parent="0" />
        <mxCell id="6e0c8c40b5770093-71" style="edgeStyle=elbowEdgeStyle;rounded=0;html=1;dashed=1;labelBackgroundColor=none;startFill=0;endArrow=open;endFill=0;endSize=10;fontFamily=Verdana;fontSize=10;elbow=vertical;" parent="1" source="6e0c8c40b5770093-33" edge="1">
          <mxGeometry relative="1" as="geometry">
            <mxPoint x="1045.5" y="593.666666666667" as="targetPoint" />
          </mxGeometry>
        </mxCell>
        <mxCell id="6e0c8c40b5770093-65" style="edgeStyle=none;rounded=0;html=1;dashed=1;labelBackgroundColor=none;startFill=0;endArrow=open;endFill=0;endSize=10;fontFamily=Verdana;fontSize=10;entryX=-0.003;entryY=0.411;entryPerimeter=0;" parent="1" source="6e0c8c40b5770093-42" edge="1">
          <mxGeometry relative="1" as="geometry">
            <mxPoint x="799.1640000000002" y="653.27" as="targetPoint" />
          </mxGeometry>
        </mxCell>
        <mxCell id="6e0c8c40b5770093-66" style="edgeStyle=none;rounded=0;html=1;dashed=1;labelBackgroundColor=none;startFill=0;endArrow=open;endFill=0;endSize=10;fontFamily=Verdana;fontSize=10;entryX=1.013;entryY=0.444;entryPerimeter=0;" parent="1" target="6e0c8c40b5770093-43" edge="1">
          <mxGeometry relative="1" as="geometry">
            <mxPoint x="664.6881765195667" y="594.5" as="sourcePoint" />
          </mxGeometry>
        </mxCell>
        <mxCell id="6e0c8c40b5770093-58" style="rounded=0;html=1;dashed=1;labelBackgroundColor=none;startFill=0;endArrow=open;endFill=0;endSize=10;fontFamily=Verdana;fontSize=10;entryX=0.592;entryY=0.2;entryPerimeter=0;edgeStyle=elbowEdgeStyle;" parent="1" target="6e0c8c40b5770093-11" edge="1">
          <mxGeometry relative="1" as="geometry">
            <mxPoint x="526.666666666667" y="244.5" as="sourcePoint" />
          </mxGeometry>
        </mxCell>
        <mxCell id="6e0c8c40b5770093-60" style="rounded=0;html=1;entryX=0.452;entryY=0.1;entryPerimeter=0;dashed=1;labelBackgroundColor=none;startFill=0;endArrow=open;endFill=0;endSize=10;fontFamily=Verdana;fontSize=10;" parent="1" target="6e0c8c40b5770093-33" edge="1">
          <mxGeometry relative="1" as="geometry">
            <mxPoint x="581.828776978417" y="424.5" as="sourcePoint" />
          </mxGeometry>
        </mxCell>
        <mxCell id="6e0c8c40b5770093-61" style="edgeStyle=none;rounded=0;html=1;entryX=0.69;entryY=0.102;entryPerimeter=0;dashed=1;labelBackgroundColor=none;startFill=0;endArrow=open;endFill=0;endSize=10;fontFamily=Verdana;fontSize=10;" parent="1" target="6e0c8c40b5770093-33" edge="1">
          <mxGeometry relative="1" as="geometry">
            <mxPoint x="811.2746530853265" y="428.5" as="sourcePoint" />
          </mxGeometry>
        </mxCell>
        <mxCell id="6e0c8c40b5770093-62" style="edgeStyle=none;rounded=0;html=1;dashed=1;labelBackgroundColor=none;startFill=0;endArrow=open;endFill=0;endSize=10;fontFamily=Verdana;fontSize=10;exitX=1.002;exitY=0.668;exitPerimeter=0;" parent="1" target="6e0c8c40b5770093-25" edge="1">
          <mxGeometry relative="1" as="geometry">
            <mxPoint x="966.06" y="385.34000000000015" as="sourcePoint" />
          </mxGeometry>
        </mxCell>
        <mxCell id="6e0c8c40b5770093-63" style="edgeStyle=orthogonalEdgeStyle;rounded=0;html=1;dashed=1;labelBackgroundColor=none;startFill=0;endArrow=open;endFill=0;endSize=10;fontFamily=Verdana;fontSize=10;" parent="1" target="6e0c8c40b5770093-25" edge="1">
          <mxGeometry relative="1" as="geometry">
            <Array as="points">
              <mxPoint x="665.5" y="359.5" />
              <mxPoint x="665.5" y="464.5" />
            </Array>
            <mxPoint x="641.5" y="359.6666666666665" as="sourcePoint" />
          </mxGeometry>
        </mxCell>
        <mxCell id="33r3b9LW8lsq7BThP8nO-1" value="Online Examination&#xa;System&#xa; " style="shape=module;align=left;spacingLeft=20;align=center;verticalAlign=top;" vertex="1" parent="1">
          <mxGeometry x="827" y="240" width="160" height="50" as="geometry" />
        </mxCell>
        <mxCell id="33r3b9LW8lsq7BThP8nO-3" value="" style="endArrow=none;html=1;exitX=0.581;exitY=1;exitDx=0;exitDy=0;exitPerimeter=0;" edge="1" parent="1" source="33r3b9LW8lsq7BThP8nO-1">
          <mxGeometry width="50" height="50" relative="1" as="geometry">
            <mxPoint x="920" y="320" as="sourcePoint" />
            <mxPoint x="920" y="360" as="targetPoint" />
          </mxGeometry>
        </mxCell>
        <mxCell id="33r3b9LW8lsq7BThP8nO-5" value="" style="ellipse;whiteSpace=wrap;html=1;aspect=fixed;" vertex="1" parent="1">
          <mxGeometry x="910" y="360" width="20" height="20" as="geometry" />
        </mxCell>
        <mxCell id="33r3b9LW8lsq7BThP8nO-6" value="" style="endArrow=block;dashed=1;endFill=0;endSize=12;html=1;" edge="1" parent="1">
          <mxGeometry width="160" relative="1" as="geometry">
            <mxPoint x="987" y="250" as="sourcePoint" />
            <mxPoint x="1140" y="120" as="targetPoint" />
            <Array as="points">
              <mxPoint x="1070" y="120" />
            </Array>
          </mxGeometry>
        </mxCell>
        <mxCell id="33r3b9LW8lsq7BThP8nO-7" value="Exams" style="shape=module;align=left;spacingLeft=20;align=center;verticalAlign=top;" vertex="1" parent="1">
          <mxGeometry x="1140" y="110" width="101" height="50" as="geometry" />
        </mxCell>
        <mxCell id="33r3b9LW8lsq7BThP8nO-9" value="" style="ellipse;whiteSpace=wrap;html=1;aspect=fixed;" vertex="1" parent="1">
          <mxGeometry x="1090" y="140" width="10" height="10" as="geometry" />
        </mxCell>
        <mxCell id="33r3b9LW8lsq7BThP8nO-10" value="" style="endArrow=none;html=1;entryX=0;entryY=0;entryDx=0;entryDy=35;entryPerimeter=0;exitX=1;exitY=0.5;exitDx=0;exitDy=0;" edge="1" parent="1" source="33r3b9LW8lsq7BThP8nO-9" target="33r3b9LW8lsq7BThP8nO-7">
          <mxGeometry width="50" height="50" relative="1" as="geometry">
            <mxPoint x="1074.58" y="150" as="sourcePoint" />
            <mxPoint x="1074.58" y="210" as="targetPoint" />
            <Array as="points" />
          </mxGeometry>
        </mxCell>
        <mxCell id="33r3b9LW8lsq7BThP8nO-11" value="Data access" style="text;html=1;align=center;verticalAlign=middle;resizable=0;points=[];autosize=1;" vertex="1" parent="1">
          <mxGeometry x="1050" y="150" width="80" height="20" as="geometry" />
        </mxCell>
        <mxCell id="33r3b9LW8lsq7BThP8nO-12" value="" style="endArrow=block;dashed=1;endFill=0;endSize=12;html=1;" edge="1" parent="1">
          <mxGeometry width="160" relative="1" as="geometry">
            <mxPoint x="990" y="260" as="sourcePoint" />
            <mxPoint x="1150" y="200" as="targetPoint" />
            <Array as="points">
              <mxPoint x="1043" y="200" />
              <mxPoint x="1100" y="200" />
            </Array>
          </mxGeometry>
        </mxCell>
        <mxCell id="33r3b9LW8lsq7BThP8nO-13" value="Papers" style="shape=module;align=left;spacingLeft=20;align=center;verticalAlign=top;" vertex="1" parent="1">
          <mxGeometry x="1150" y="190" width="101" height="50" as="geometry" />
        </mxCell>
        <mxCell id="33r3b9LW8lsq7BThP8nO-14" value="" style="ellipse;whiteSpace=wrap;html=1;aspect=fixed;" vertex="1" parent="1">
          <mxGeometry x="1090" y="220" width="10" height="10" as="geometry" />
        </mxCell>
        <mxCell id="33r3b9LW8lsq7BThP8nO-15" value="" style="endArrow=none;html=1;entryX=0;entryY=0;entryDx=0;entryDy=35;entryPerimeter=0;exitX=1;exitY=0.5;exitDx=0;exitDy=0;" edge="1" parent="1">
          <mxGeometry width="50" height="50" relative="1" as="geometry">
            <mxPoint x="1100" y="145" as="sourcePoint" />
            <mxPoint x="1140" y="145" as="targetPoint" />
            <Array as="points">
              <mxPoint x="1120" y="145" />
            </Array>
          </mxGeometry>
        </mxCell>
        <mxCell id="33r3b9LW8lsq7BThP8nO-17" value="" style="endArrow=none;html=1;entryX=0;entryY=0;entryDx=0;entryDy=35;entryPerimeter=0;exitX=1;exitY=0.5;exitDx=0;exitDy=0;" edge="1" parent="1" source="33r3b9LW8lsq7BThP8nO-14" target="33r3b9LW8lsq7BThP8nO-13">
          <mxGeometry width="50" height="50" relative="1" as="geometry">
            <mxPoint x="1100" y="230" as="sourcePoint" />
            <mxPoint x="1130" y="200" as="targetPoint" />
          </mxGeometry>
        </mxCell>
        <mxCell id="33r3b9LW8lsq7BThP8nO-18" value="Data access" style="text;html=1;align=center;verticalAlign=middle;resizable=0;points=[];autosize=1;" vertex="1" parent="1">
          <mxGeometry x="1050" y="240" width="80" height="20" as="geometry" />
        </mxCell>
        <mxCell id="33r3b9LW8lsq7BThP8nO-19" value="" style="endArrow=block;dashed=1;endFill=0;endSize=12;html=1;" edge="1" parent="1">
          <mxGeometry width="160" relative="1" as="geometry">
            <mxPoint x="990" y="280" as="sourcePoint" />
            <mxPoint x="1150" y="280" as="targetPoint" />
            <Array as="points">
              <mxPoint x="1050" y="280" />
            </Array>
          </mxGeometry>
        </mxCell>
        <mxCell id="33r3b9LW8lsq7BThP8nO-20" value="Students" style="shape=module;align=left;spacingLeft=20;align=center;verticalAlign=top;" vertex="1" parent="1">
          <mxGeometry x="1151" y="270" width="100" height="50" as="geometry" />
        </mxCell>
        <mxCell id="33r3b9LW8lsq7BThP8nO-21" value="" style="ellipse;whiteSpace=wrap;html=1;aspect=fixed;" vertex="1" parent="1">
          <mxGeometry x="1090" y="300" width="10" height="10" as="geometry" />
        </mxCell>
        <mxCell id="33r3b9LW8lsq7BThP8nO-22" value="" style="endArrow=none;html=1;exitX=1;exitY=0.5;exitDx=0;exitDy=0;" edge="1" parent="1" source="33r3b9LW8lsq7BThP8nO-21">
          <mxGeometry width="50" height="50" relative="1" as="geometry">
            <mxPoint x="1110" y="304.58" as="sourcePoint" />
            <mxPoint x="1150" y="304.58" as="targetPoint" />
            <Array as="points">
              <mxPoint x="1130" y="304.58" />
              <mxPoint x="1150" y="304.58" />
            </Array>
          </mxGeometry>
        </mxCell>
        <mxCell id="33r3b9LW8lsq7BThP8nO-23" value="Data access" style="text;html=1;align=center;verticalAlign=middle;resizable=0;points=[];autosize=1;" vertex="1" parent="1">
          <mxGeometry x="1050" y="310" width="80" height="20" as="geometry" />
        </mxCell>
        <mxCell id="33r3b9LW8lsq7BThP8nO-24" value="" style="endArrow=block;dashed=1;endFill=0;endSize=12;html=1;" edge="1" parent="1">
          <mxGeometry width="160" relative="1" as="geometry">
            <mxPoint x="1010" y="280" as="sourcePoint" />
            <mxPoint x="1160" y="360" as="targetPoint" />
            <Array as="points">
              <mxPoint x="1010" y="360" />
            </Array>
          </mxGeometry>
        </mxCell>
        <mxCell id="33r3b9LW8lsq7BThP8nO-25" value="Results" style="shape=module;align=left;spacingLeft=20;align=center;verticalAlign=top;" vertex="1" parent="1">
          <mxGeometry x="1160" y="345" width="100" height="50" as="geometry" />
        </mxCell>
        <mxCell id="33r3b9LW8lsq7BThP8nO-26" value="" style="ellipse;whiteSpace=wrap;html=1;aspect=fixed;" vertex="1" parent="1">
          <mxGeometry x="1090" y="377" width="10" height="10" as="geometry" />
        </mxCell>
        <mxCell id="33r3b9LW8lsq7BThP8nO-27" value="" style="endArrow=none;html=1;" edge="1" parent="1">
          <mxGeometry width="50" height="50" relative="1" as="geometry">
            <mxPoint x="1100" y="381.58" as="sourcePoint" />
            <mxPoint x="1160" y="381.58" as="targetPoint" />
          </mxGeometry>
        </mxCell>
        <mxCell id="33r3b9LW8lsq7BThP8nO-30" value="Data access" style="text;html=1;align=center;verticalAlign=middle;resizable=0;points=[];autosize=1;" vertex="1" parent="1">
          <mxGeometry x="1050" y="390" width="80" height="20" as="geometry" />
        </mxCell>
        <mxCell id="33r3b9LW8lsq7BThP8nO-31" value="" style="endArrow=block;dashed=1;endFill=0;endSize=12;html=1;" edge="1" parent="1">
          <mxGeometry width="160" relative="1" as="geometry">
            <mxPoint x="1015" y="360" as="sourcePoint" />
            <mxPoint x="1175" y="440" as="targetPoint" />
            <Array as="points">
              <mxPoint x="1015" y="440" />
            </Array>
          </mxGeometry>
        </mxCell>
        <mxCell id="33r3b9LW8lsq7BThP8nO-32" value="Teachers" style="shape=module;align=left;spacingLeft=20;align=center;verticalAlign=top;" vertex="1" parent="1">
          <mxGeometry x="1174" y="425" width="100" height="50" as="geometry" />
        </mxCell>
        <mxCell id="33r3b9LW8lsq7BThP8nO-33" value="" style="endArrow=none;html=1;" edge="1" parent="1">
          <mxGeometry width="50" height="50" relative="1" as="geometry">
            <mxPoint x="1100" y="381.5799999999999" as="sourcePoint" />
            <mxPoint x="1160" y="381.5799999999999" as="targetPoint" />
          </mxGeometry>
        </mxCell>
        <mxCell id="33r3b9LW8lsq7BThP8nO-34" value="" style="endArrow=none;html=1;" edge="1" parent="1">
          <mxGeometry width="50" height="50" relative="1" as="geometry">
            <mxPoint x="1114" y="459.99999999999994" as="sourcePoint" />
            <mxPoint x="1174" y="459.99999999999994" as="targetPoint" />
          </mxGeometry>
        </mxCell>
        <mxCell id="33r3b9LW8lsq7BThP8nO-35" value="" style="ellipse;whiteSpace=wrap;html=1;aspect=fixed;" vertex="1" parent="1">
          <mxGeometry x="1104" y="456" width="10" height="10" as="geometry" />
        </mxCell>
        <mxCell id="33r3b9LW8lsq7BThP8nO-36" value="Data access" style="text;html=1;align=center;verticalAlign=middle;resizable=0;points=[];autosize=1;" vertex="1" parent="1">
          <mxGeometry x="1050" y="475" width="80" height="20" as="geometry" />
        </mxCell>
        <mxCell id="33r3b9LW8lsq7BThP8nO-37" value="&lt;div&gt;System Admin of Online Examination &lt;br&gt;&lt;/div&gt;&lt;div&gt;Management System&lt;br&gt;&lt;/div&gt;" style="text;html=1;align=center;verticalAlign=middle;resizable=0;points=[];autosize=1;" vertex="1" parent="1">
          <mxGeometry x="815" y="385" width="210" height="30" as="geometry" />
        </mxCell>
        <mxCell id="33r3b9LW8lsq7BThP8nO-46" value="" style="rounded=0;orthogonalLoop=1;jettySize=auto;html=1;endArrow=none;endFill=0;" edge="1" target="33r3b9LW8lsq7BThP8nO-48" parent="1" source="33r3b9LW8lsq7BThP8nO-7">
          <mxGeometry relative="1" as="geometry">
            <mxPoint x="1270" y="135" as="sourcePoint" />
          </mxGeometry>
        </mxCell>
        <mxCell id="33r3b9LW8lsq7BThP8nO-47" value="" style="rounded=0;orthogonalLoop=1;jettySize=auto;html=1;endArrow=halfCircle;endFill=0;entryX=0.5;entryY=0.5;entryDx=0;entryDy=0;endSize=6;strokeWidth=1;" edge="1" target="33r3b9LW8lsq7BThP8nO-48" parent="1">
          <mxGeometry relative="1" as="geometry">
            <mxPoint x="1400" y="290" as="sourcePoint" />
            <Array as="points">
              <mxPoint x="1400" y="135" />
            </Array>
          </mxGeometry>
        </mxCell>
        <mxCell id="33r3b9LW8lsq7BThP8nO-48" value="" style="ellipse;whiteSpace=wrap;html=1;fontFamily=Helvetica;fontSize=12;fontColor=#000000;align=center;strokeColor=#000000;fillColor=#ffffff;points=[];aspect=fixed;resizable=0;" vertex="1" parent="1">
          <mxGeometry x="1285" y="130" width="10" height="10" as="geometry" />
        </mxCell>
        <mxCell id="33r3b9LW8lsq7BThP8nO-49" value="" style="rounded=0;orthogonalLoop=1;jettySize=auto;html=1;endArrow=none;endFill=0;" edge="1" target="33r3b9LW8lsq7BThP8nO-51" parent="1" source="33r3b9LW8lsq7BThP8nO-13">
          <mxGeometry relative="1" as="geometry">
            <mxPoint x="1285" y="205" as="sourcePoint" />
          </mxGeometry>
        </mxCell>
        <mxCell id="33r3b9LW8lsq7BThP8nO-50" value="" style="rounded=0;orthogonalLoop=1;jettySize=auto;html=1;endArrow=halfCircle;endFill=0;entryX=0.5;entryY=0.5;entryDx=0;entryDy=0;endSize=6;strokeWidth=1;" edge="1" target="33r3b9LW8lsq7BThP8nO-51" parent="1">
          <mxGeometry relative="1" as="geometry">
            <mxPoint x="1480" y="215" as="sourcePoint" />
          </mxGeometry>
        </mxCell>
        <mxCell id="33r3b9LW8lsq7BThP8nO-51" value="" style="ellipse;whiteSpace=wrap;html=1;fontFamily=Helvetica;fontSize=12;fontColor=#000000;align=center;strokeColor=#000000;fillColor=#ffffff;points=[];aspect=fixed;resizable=0;" vertex="1" parent="1">
          <mxGeometry x="1300" y="210" width="10" height="10" as="geometry" />
        </mxCell>
        <mxCell id="33r3b9LW8lsq7BThP8nO-52" value="Encryption" style="text;html=1;align=center;verticalAlign=middle;resizable=0;points=[];autosize=1;" vertex="1" parent="1">
          <mxGeometry x="1265" y="100" width="70" height="20" as="geometry" />
        </mxCell>
        <mxCell id="33r3b9LW8lsq7BThP8nO-53" value="Access Control" style="text;html=1;align=center;verticalAlign=middle;resizable=0;points=[];autosize=1;" vertex="1" parent="1">
          <mxGeometry x="1260" y="180" width="100" height="20" as="geometry" />
        </mxCell>
        <mxCell id="33r3b9LW8lsq7BThP8nO-54" value="" style="rounded=0;orthogonalLoop=1;jettySize=auto;html=1;endArrow=none;endFill=0;exitX=1;exitY=0.5;exitDx=0;exitDy=0;" edge="1" target="33r3b9LW8lsq7BThP8nO-56" parent="1" source="33r3b9LW8lsq7BThP8nO-20">
          <mxGeometry relative="1" as="geometry">
            <mxPoint x="1300" y="295" as="sourcePoint" />
          </mxGeometry>
        </mxCell>
        <mxCell id="33r3b9LW8lsq7BThP8nO-55" value="" style="rounded=0;orthogonalLoop=1;jettySize=auto;html=1;endArrow=halfCircle;endFill=0;entryX=0.5;entryY=0.5;entryDx=0;entryDy=0;endSize=6;strokeWidth=1;exitX=0;exitY=0;exitDx=0;exitDy=15;exitPerimeter=0;" edge="1" target="33r3b9LW8lsq7BThP8nO-56" parent="1" source="33r3b9LW8lsq7BThP8nO-67">
          <mxGeometry relative="1" as="geometry">
            <mxPoint x="1480" y="295" as="sourcePoint" />
          </mxGeometry>
        </mxCell>
        <mxCell id="33r3b9LW8lsq7BThP8nO-56" value="" style="ellipse;whiteSpace=wrap;html=1;fontFamily=Helvetica;fontSize=12;fontColor=#000000;align=center;strokeColor=#000000;fillColor=#ffffff;points=[];aspect=fixed;resizable=0;" vertex="1" parent="1">
          <mxGeometry x="1315" y="290" width="10" height="10" as="geometry" />
        </mxCell>
        <mxCell id="33r3b9LW8lsq7BThP8nO-57" value="" style="rounded=0;orthogonalLoop=1;jettySize=auto;html=1;endArrow=none;endFill=0;" edge="1" target="33r3b9LW8lsq7BThP8nO-59" parent="1" source="33r3b9LW8lsq7BThP8nO-25">
          <mxGeometry relative="1" as="geometry">
            <mxPoint x="1310" y="370" as="sourcePoint" />
          </mxGeometry>
        </mxCell>
        <mxCell id="33r3b9LW8lsq7BThP8nO-58" value="" style="rounded=0;orthogonalLoop=1;jettySize=auto;html=1;endArrow=halfCircle;endFill=0;entryX=0.5;entryY=0.5;entryDx=0;entryDy=0;endSize=6;strokeWidth=1;" edge="1" target="33r3b9LW8lsq7BThP8nO-59" parent="1">
          <mxGeometry relative="1" as="geometry">
            <mxPoint x="1400" y="290" as="sourcePoint" />
            <Array as="points">
              <mxPoint x="1400" y="370" />
            </Array>
          </mxGeometry>
        </mxCell>
        <mxCell id="33r3b9LW8lsq7BThP8nO-59" value="" style="ellipse;whiteSpace=wrap;html=1;fontFamily=Helvetica;fontSize=12;fontColor=#000000;align=center;strokeColor=#000000;fillColor=#ffffff;points=[];aspect=fixed;resizable=0;" vertex="1" parent="1">
          <mxGeometry x="1325" y="365" width="10" height="10" as="geometry" />
        </mxCell>
        <mxCell id="33r3b9LW8lsq7BThP8nO-60" value="" style="rounded=0;orthogonalLoop=1;jettySize=auto;html=1;endArrow=none;endFill=0;exitX=1.022;exitY=0.39;exitDx=0;exitDy=0;exitPerimeter=0;" edge="1" parent="1" source="33r3b9LW8lsq7BThP8nO-32">
          <mxGeometry relative="1" as="geometry">
            <mxPoint x="1315" y="445" as="sourcePoint" />
            <mxPoint x="1320" y="370" as="targetPoint" />
            <Array as="points">
              <mxPoint x="1320" y="445" />
            </Array>
          </mxGeometry>
        </mxCell>
        <mxCell id="33r3b9LW8lsq7BThP8nO-63" value="Encryption " style="text;html=1;align=center;verticalAlign=middle;resizable=0;points=[];autosize=1;" vertex="1" parent="1">
          <mxGeometry x="1315" y="250" width="70" height="20" as="geometry" />
        </mxCell>
        <mxCell id="33r3b9LW8lsq7BThP8nO-64" value="Access Control" style="text;html=1;align=center;verticalAlign=middle;resizable=0;points=[];autosize=1;" vertex="1" parent="1">
          <mxGeometry x="1290" y="340" width="100" height="20" as="geometry" />
        </mxCell>
        <mxCell id="33r3b9LW8lsq7BThP8nO-65" value="" style="endArrow=none;html=1;" edge="1" parent="1">
          <mxGeometry width="50" height="50" relative="1" as="geometry">
            <mxPoint x="1400" y="196" as="sourcePoint" />
            <mxPoint x="1480" y="196" as="targetPoint" />
          </mxGeometry>
        </mxCell>
        <mxCell id="33r3b9LW8lsq7BThP8nO-66" value="Security" style="shape=module;align=left;spacingLeft=20;align=center;verticalAlign=top;" vertex="1" parent="1">
          <mxGeometry x="1480" y="180" width="100" height="50" as="geometry" />
        </mxCell>
        <mxCell id="33r3b9LW8lsq7BThP8nO-67" value="persistance" style="shape=module;align=left;spacingLeft=20;align=center;verticalAlign=top;" vertex="1" parent="1">
          <mxGeometry x="1490" y="280" width="100" height="50" as="geometry" />
        </mxCell>
        <mxCell id="33r3b9LW8lsq7BThP8nO-68" value="" style="endArrow=none;html=1;" edge="1" parent="1">
          <mxGeometry width="50" height="50" relative="1" as="geometry">
            <mxPoint x="1400" y="316" as="sourcePoint" />
            <mxPoint x="1490" y="315.58" as="targetPoint" />
          </mxGeometry>
        </mxCell>
        <mxCell id="33r3b9LW8lsq7BThP8nO-69" value="Database" style="shape=module;align=left;spacingLeft=20;align=center;verticalAlign=top;" vertex="1" parent="1">
          <mxGeometry x="1430" y="390" width="110" height="50" as="geometry" />
        </mxCell>
        <mxCell id="33r3b9LW8lsq7BThP8nO-70" value="" style="rounded=0;orthogonalLoop=1;jettySize=auto;html=1;endArrow=none;endFill=0;exitX=1;exitY=0.5;exitDx=0;exitDy=0;" edge="1" target="33r3b9LW8lsq7BThP8nO-72" parent="1" source="33r3b9LW8lsq7BThP8nO-69">
          <mxGeometry relative="1" as="geometry">
            <mxPoint x="1614" y="415" as="sourcePoint" />
          </mxGeometry>
        </mxCell>
        <mxCell id="33r3b9LW8lsq7BThP8nO-71" value="" style="rounded=0;orthogonalLoop=1;jettySize=auto;html=1;endArrow=halfCircle;endFill=0;entryX=0.5;entryY=0.5;entryDx=0;entryDy=0;endSize=6;strokeWidth=1;exitX=1;exitY=0.5;exitDx=0;exitDy=0;" edge="1" target="33r3b9LW8lsq7BThP8nO-72" parent="1" source="33r3b9LW8lsq7BThP8nO-67">
          <mxGeometry relative="1" as="geometry">
            <mxPoint x="1670" y="300" as="sourcePoint" />
            <Array as="points">
              <mxPoint x="1670" y="305" />
              <mxPoint x="1670" y="415" />
            </Array>
          </mxGeometry>
        </mxCell>
        <mxCell id="33r3b9LW8lsq7BThP8nO-72" value="" style="ellipse;whiteSpace=wrap;html=1;fontFamily=Helvetica;fontSize=12;fontColor=#000000;align=center;strokeColor=#000000;fillColor=#ffffff;points=[];aspect=fixed;resizable=0;" vertex="1" parent="1">
          <mxGeometry x="1629" y="410" width="10" height="10" as="geometry" />
        </mxCell>
        <mxCell id="33r3b9LW8lsq7BThP8nO-73" value="Database Connector" style="text;html=1;align=center;verticalAlign=middle;resizable=0;points=[];autosize=1;" vertex="1" parent="1">
          <mxGeometry x="1540" y="385" width="120" height="20" as="geometry" />
        </mxCell>
      </root>
    </mxGraphModel>
  </diagram>
</mxfile>
